<svg version="1.1" id="Layer_1" xmlns="http://www.w3.org/2000/svg" xmlns:xlink="http://www.w3.org/1999/xlink" x="0px" y="0px"
	 width="100%" viewBox="0 0 2896 2896" enable-background="new 0 0 2896 2896" xml:space="preserve">
<path fill="#000000" opacity="1.000000" stroke="none" 
	d="
M1910.000000,2898.000000 
	C1273.333496,2898.000000 637.666870,2898.000000 2.000256,2898.000000 
	C2.000171,1932.666992 2.000171,967.333923 2.000085,2.000644 
	C967.332825,2.000430 1932.665649,2.000430 2897.999023,2.000215 
	C2897.999268,967.332703 2897.999268,1932.665405 2897.999512,2897.999023 
	C2569.000000,2898.000000 2240.000000,2898.000000 1910.000000,2898.000000 
M897.001892,464.327789 
	C885.095642,464.327789 873.189392,464.327789 860.283569,464.327789 
	C860.283569,579.061584 860.283569,692.796753 860.283569,808.707764 
	C856.444031,804.913818 854.187317,802.648132 851.892151,800.422119 
	C841.853027,790.685608 832.263306,780.425415 821.680969,771.319214 
	C758.450684,716.909119 684.356873,690.738220 601.558411,688.558960 
	C583.733826,688.089783 565.750061,689.828491 547.981689,691.818237 
	C504.823914,696.651367 464.685974,710.950134 427.140045,732.598816 
	C395.501373,750.841431 367.891022,774.064819 342.807190,800.533569 
	C322.345459,822.125061 304.589996,845.641846 289.655945,871.330627 
	C263.514374,916.298035 248.773575,964.966064 244.595413,1016.583435 
	C242.452438,1043.057983 242.609680,1069.724731 245.580063,1096.296631 
	C249.974274,1135.605591 260.463776,1173.068726 277.607788,1208.727051 
	C302.572296,1260.651123 338.534180,1303.824097 383.268097,1339.573242 
	C441.558136,1386.155884 508.862091,1408.863159 583.084290,1411.584595 
	C604.330078,1412.363647 625.525085,1411.166870 646.689880,1408.464966 
	C700.875244,1401.547974 749.935364,1381.844971 794.698242,1350.848022 
	C817.352722,1335.160522 837.658936,1316.753906 858.327759,1296.040405 
	C858.327759,1301.003052 858.327759,1304.522583 858.327759,1308.041992 
	C858.327759,1472.375000 858.357300,1636.707886 858.292542,1801.040894 
	C858.283936,1822.976440 859.123474,1844.825562 861.574524,1866.647339 
	C864.935242,1896.568359 872.449036,1925.363403 884.249939,1952.990967 
	C902.780823,1996.374268 929.771851,2033.845825 963.315857,2066.983398 
	C1003.275146,2106.458496 1049.014038,2136.138672 1102.742798,2153.171387 
	C1128.819336,2161.437988 1155.559937,2166.344482 1182.790039,2167.502197 
	C1215.705811,2168.901123 1248.472412,2167.112549 1280.863159,2159.987061 
	C1322.273560,2150.877441 1360.575806,2134.689453 1395.493652,2110.757568 
	C1430.926392,2086.472412 1461.033325,2056.579834 1486.445190,2021.968872 
	C1526.493286,1967.423462 1547.508301,1906.007324 1551.536499,1838.746094 
	C1553.025146,1813.888428 1551.895630,1789.040161 1548.496460,1764.246582 
	C1543.626221,1728.723145 1533.717285,1694.819336 1518.015137,1662.654663 
	C1491.542603,1608.427368 1453.007812,1563.980713 1405.520142,1527.345947 
	C1352.369995,1486.343018 1291.610962,1465.349609 1224.703735,1462.447144 
	C1198.127686,1461.294312 1171.619385,1463.419312 1145.360962,1467.850464 
	C1105.652100,1474.551270 1068.329590,1487.850342 1033.770386,1508.670776 
	C1010.306091,1522.807251 988.710083,1539.318481 969.544739,1558.952759 
	C962.958557,1565.699829 956.222961,1572.301147 948.342163,1580.182617 
	C948.342163,1576.133423 948.257629,1573.894409 948.355835,1571.663330 
	C948.995911,1557.127686 950.144470,1542.597778 950.269958,1528.058716 
	C951.590698,1375.137329 950.064636,1222.218018 951.792419,1069.278809 
	C954.040283,870.304626 952.344727,671.285889 952.311584,472.286316 
	C952.311218,469.772888 951.854126,467.259521 951.569641,464.327789 
	C933.584473,464.327789 916.292908,464.327789 897.001892,464.327789 
M599.830688,2014.325073 
	C599.072449,2009.382324 601.814026,2003.861328 597.578308,1999.183350 
	C593.814087,2005.846558 591.748657,2024.689819 594.098633,2032.219238 
	C597.735046,2027.071655 593.348999,2019.551758 599.830688,2014.325073 
z"/>
<path fill="#FEFEFE" opacity="1.000000" stroke="none" 
	d="
M898.001587,464.327789 
	C916.292908,464.327789 933.584473,464.327789 951.569641,464.327789 
	C951.854126,467.259521 952.311218,469.772888 952.311584,472.286316 
	C952.344727,671.285889 954.040283,870.304626 951.792419,1069.278809 
	C950.064636,1222.218018 951.590698,1375.137329 950.269958,1528.058716 
	C950.144470,1542.597778 948.995911,1557.127686 948.355835,1571.663330 
	C948.257629,1573.894409 948.342163,1576.133423 948.342163,1580.182617 
	C956.222961,1572.301147 962.958557,1565.699829 969.544739,1558.952759 
	C988.710083,1539.318481 1010.306091,1522.807251 1033.770386,1508.670776 
	C1068.329590,1487.850342 1105.652100,1474.551270 1145.360962,1467.850464 
	C1171.619385,1463.419312 1198.127686,1461.294312 1224.703735,1462.447144 
	C1291.610962,1465.349609 1352.369995,1486.343018 1405.520142,1527.345947 
	C1453.007812,1563.980713 1491.542603,1608.427368 1518.015137,1662.654663 
	C1533.717285,1694.819336 1543.626221,1728.723145 1548.496460,1764.246582 
	C1551.895630,1789.040161 1553.025146,1813.888428 1551.536499,1838.746094 
	C1547.508301,1906.007324 1526.493286,1967.423462 1486.445190,2021.968872 
	C1461.033325,2056.579834 1430.926392,2086.472412 1395.493652,2110.757568 
	C1360.575806,2134.689453 1322.273560,2150.877441 1280.863159,2159.987061 
	C1248.472412,2167.112549 1215.705811,2168.901123 1182.790039,2167.502197 
	C1155.559937,2166.344482 1128.819336,2161.437988 1102.742798,2153.171387 
	C1049.014038,2136.138672 1003.275146,2106.458496 963.315857,2066.983398 
	C929.771851,2033.845825 902.780823,1996.374268 884.249939,1952.990967 
	C872.449036,1925.363403 864.935242,1896.568359 861.574524,1866.647339 
	C859.123474,1844.825562 858.283936,1822.976440 858.292542,1801.040894 
	C858.357300,1636.707886 858.327759,1472.375000 858.327759,1308.041992 
	C858.327759,1304.522583 858.327759,1301.003052 858.327759,1296.040405 
	C837.658936,1316.753906 817.352722,1335.160522 794.698242,1350.848022 
	C749.935364,1381.844971 700.875244,1401.547974 646.689880,1408.464966 
	C625.525085,1411.166870 604.330078,1412.363647 583.084290,1411.584595 
	C508.862091,1408.863159 441.558136,1386.155884 383.268097,1339.573242 
	C338.534180,1303.824097 302.572296,1260.651123 277.607788,1208.727051 
	C260.463776,1173.068726 249.974274,1135.605591 245.580063,1096.296631 
	C242.609680,1069.724731 242.452438,1043.057983 244.595413,1016.583435 
	C248.773575,964.966064 263.514374,916.298035 289.655945,871.330627 
	C304.589996,845.641846 322.345459,822.125061 342.807190,800.533569 
	C367.891022,774.064819 395.501373,750.841431 427.140045,732.598816 
	C464.685974,710.950134 504.823914,696.651367 547.981689,691.818237 
	C565.750061,689.828491 583.733826,688.089783 601.558411,688.558960 
	C684.356873,690.738220 758.450684,716.909119 821.680969,771.319214 
	C832.263306,780.425415 841.853027,790.685608 851.892151,800.422119 
	C854.187317,802.648132 856.444031,804.913818 860.283569,808.707764 
	C860.283569,692.796753 860.283569,579.061584 860.283569,464.327789 
	C873.189392,464.327789 885.095642,464.327789 898.001587,464.327789 
M560.277588,783.051575 
	C534.496399,786.855347 509.844757,794.210571 486.323761,805.587646 
	C454.078461,821.184631 426.949463,843.398376 403.052551,869.661011 
	C382.073608,892.716736 365.484192,918.770691 354.207428,947.897583 
	C337.984650,989.799622 332.685364,1033.116699 337.488739,1077.892334 
	C340.129517,1102.508789 345.560852,1126.263062 354.536377,1149.250122 
	C368.907928,1186.056763 391.067627,1217.815186 418.709381,1245.707153 
	C443.775238,1270.999878 472.702759,1290.880005 506.157074,1303.617554 
	C548.955811,1319.912964 593.229736,1323.814209 638.387878,1317.875732 
	C660.854614,1314.921265 682.363098,1308.320312 703.044800,1298.772583 
	C741.356323,1281.086426 772.141235,1254.157715 798.538940,1221.873413 
	C822.395020,1192.697388 839.882324,1159.940063 849.482056,1123.453735 
	C861.251465,1078.720825 861.752502,1033.424438 851.851807,988.339844 
	C835.380798,913.336426 792.968079,856.223022 728.721558,815.198669 
	C691.088684,791.168396 649.038452,781.171753 604.744446,780.480957 
	C590.507568,780.258911 576.243408,781.779419 560.277588,783.051575 
M1228.190063,2077.665771 
	C1231.127319,2077.220947 1234.054077,2076.686279 1237.003296,2076.345459 
	C1262.958130,2073.348389 1287.601196,2065.930420 1311.131592,2054.628418 
	C1342.780640,2039.427002 1369.579712,2017.876343 1392.680786,1991.708374 
	C1409.684692,1972.447021 1424.211426,1951.355347 1435.121338,1928.015503 
	C1457.036011,1881.132202 1464.410645,1831.895386 1458.338379,1780.551758 
	C1454.187256,1745.453369 1443.284424,1712.644165 1425.549072,1682.075317 
	C1408.998169,1653.548096 1387.345947,1629.320435 1362.283813,1608.177856 
	C1335.542603,1585.618896 1305.261841,1569.442749 1271.395386,1560.151123 
	C1245.618896,1553.078979 1219.402588,1551.081787 1192.743164,1551.524536 
	C1158.581543,1552.091919 1126.331421,1559.978882 1095.822144,1574.906494 
	C1064.635986,1590.165283 1038.262085,1611.829590 1015.576538,1637.966431 
	C990.416687,1666.953369 971.581055,1699.483643 961.320374,1736.707153 
	C952.163513,1769.926392 948.681946,1803.554077 951.443970,1838.056519 
	C953.666138,1865.814697 959.459534,1892.525879 970.311951,1918.040894 
	C988.775818,1961.451294 1017.270447,1997.227295 1054.022217,2026.689575 
	C1104.557129,2067.201416 1162.323486,2082.859131 1228.190063,2077.665771 
z"/>
<path fill="#DBDBDB" opacity="1.000000" stroke="none" 
	d="
M599.745789,2015.175049 
	C593.348999,2019.551758 597.735046,2027.071655 594.098633,2032.219238 
	C591.748657,2024.689819 593.814087,2005.846558 597.578308,1999.183350 
	C601.814026,2003.861328 599.072449,2009.382324 599.745789,2015.175049 
z"/>
<path fill="#010101" opacity="1.000000" stroke="none" 
	d="
M561.134644,782.777161 
	C576.243408,781.779419 590.507568,780.258911 604.744446,780.480957 
	C649.038452,781.171753 691.088684,791.168396 728.721558,815.198669 
	C792.968079,856.223022 835.380798,913.336426 851.851807,988.339844 
	C861.752502,1033.424438 861.251465,1078.720825 849.482056,1123.453735 
	C839.882324,1159.940063 822.395020,1192.697388 798.538940,1221.873413 
	C772.141235,1254.157715 741.356323,1281.086426 703.044800,1298.772583 
	C682.363098,1308.320312 660.854614,1314.921265 638.387878,1317.875732 
	C593.229736,1323.814209 548.955811,1319.912964 506.157074,1303.617554 
	C472.702759,1290.880005 443.775238,1270.999878 418.709381,1245.707153 
	C391.067627,1217.815186 368.907928,1186.056763 354.536377,1149.250122 
	C345.560852,1126.263062 340.129517,1102.508789 337.488739,1077.892334 
	C332.685364,1033.116699 337.984650,989.799622 354.207428,947.897583 
	C365.484192,918.770691 382.073608,892.716736 403.052551,869.661011 
	C426.949463,843.398376 454.078461,821.184631 486.323761,805.587646 
	C509.844757,794.210571 534.496399,786.855347 561.134644,782.777161 
z"/>
<path fill="#000000" opacity="1.000000" stroke="none" 
	d="
M1227.253906,2077.674072 
	C1162.323486,2082.859131 1104.557129,2067.201416 1054.022217,2026.689575 
	C1017.270447,1997.227295 988.775818,1961.451294 970.311951,1918.040894 
	C959.459534,1892.525879 953.666138,1865.814697 951.443970,1838.056519 
	C948.681946,1803.554077 952.163513,1769.926392 961.320374,1736.707153 
	C971.581055,1699.483643 990.416687,1666.953369 1015.576538,1637.966431 
	C1038.262085,1611.829590 1064.635986,1590.165283 1095.822144,1574.906494 
	C1126.331421,1559.978882 1158.581543,1552.091919 1192.743164,1551.524536 
	C1219.402588,1551.081787 1245.618896,1553.078979 1271.395386,1560.151123 
	C1305.261841,1569.442749 1335.542603,1585.618896 1362.283813,1608.177856 
	C1387.345947,1629.320435 1408.998169,1653.548096 1425.549072,1682.075317 
	C1443.284424,1712.644165 1454.187256,1745.453369 1458.338379,1780.551758 
	C1464.410645,1831.895386 1457.036011,1881.132202 1435.121338,1928.015503 
	C1424.211426,1951.355347 1409.684692,1972.447021 1392.680786,1991.708374 
	C1369.579712,2017.876343 1342.780640,2039.427002 1311.131592,2054.628418 
	C1287.601196,2065.930420 1262.958130,2073.348389 1237.003296,2076.345459 
	C1234.054077,2076.686279 1231.127319,2077.220947 1227.253906,2077.674072 
z"/>
</svg>